<?xml version="1.0" standalone="no"?>
<!DOCTYPE svg PUBLIC "-//W3C//DTD SVG 20010904//EN"
 "http://www.w3.org/TR/2001/REC-SVG-20010904/DTD/svg10.dtd">
<svg version="1.0" xmlns="http://www.w3.org/2000/svg"
 width="16.000000pt" height="16.000000pt" viewBox="0 0 16.000000 16.000000"
 preserveAspectRatio="xMidYMid meet">
<metadata>
Created by potrace 1.11, written by Peter Selinger 2001-2013
</metadata>
<g transform="translate(0.000000,16.000000) scale(0.002286,-0.002286)"
fill="#000000" stroke="none">
<path d="M3464 6391 c-17 -10 -41 -34 -52 -53 -20 -32 -70 -153 -77 -188 -2
-8 -13 -54 -24 -102 -11 -47 -23 -101 -26 -120 -3 -18 -10 -58 -15 -88 -13
-80 -19 -126 -25 -204 -4 -38 -8 -72 -9 -75 -20 -32 -29 -873 -13 -1106 l9
-121 -66 -27 -66 -27 -38 43 c-22 23 -54 60 -73 82 -92 107 -397 418 -517 527
-521 474 -939 725 -1029 616 -54 -64 34 -273 224 -534 47 -64 261 -334 273
-344 4 -3 44 -48 91 -100 167 -188 496 -507 682 -660 4 -4 -4 -38 -20 -75
l-28 -67 -125 8 c-235 17 -982 9 -1087 -10 -10 -2 -49 -7 -88 -10 -113 -11
-147 -15 -200 -26 -27 -5 -66 -11 -85 -13 -106 -13 -307 -72 -384 -112 -148
-76 -128 -164 53 -234 123 -47 336 -95 513 -116 183 -20 208 -23 316 -30 160
-12 251 -14 477 -14 226 0 297 2 495 14 l116 7 27 -67 c15 -37 27 -68 25 -70
-2 -1 -43 -37 -93 -81 -49 -43 -103 -90 -119 -104 -64 -55 -406 -401 -485
-490 -46 -52 -98 -111 -115 -130 -64 -71 -229 -288 -300 -395 -160 -239 -215
-397 -157 -449 155 -140 1012 522 1642 1267 3 5 26 0 50 -11 24 -11 55 -23 67
-27 l24 -7 -9 -116 c-16 -223 -8 -1000 12 -1097 2 -11 6 -56 10 -100 3 -44 10
-105 15 -135 6 -30 12 -73 16 -95 3 -22 14 -80 25 -130 11 -49 22 -100 25
-113 10 -51 67 -190 92 -227 74 -107 154 -64 220 118 30 84 75 271 87 361 3
27 8 52 10 55 3 6 7 37 21 176 2 28 7 66 9 85 5 37 14 172 20 310 5 106 6 498
1 605 -2 44 -7 130 -11 191 l-7 112 39 12 c21 7 47 19 59 27 12 7 27 11 35 7
8 -3 55 -53 104 -111 161 -187 504 -526 710 -700 320 -271 593 -445 735 -471
136 -25 160 59 72 248 -48 103 -209 344 -316 473 -19 23 -51 62 -71 87 -175
214 -518 565 -733 750 -61 52 -113 100 -116 107 -3 6 7 39 22 73 l27 61 120
-8 c156 -10 831 -10 960 0 116 9 178 15 220 21 17 2 59 7 95 11 36 4 74 9 85
11 11 2 31 6 45 9 14 2 45 7 70 10 74 10 240 55 322 86 140 54 184 122 121
188 -61 62 -246 124 -493 165 -96 16 -123 19 -240 31 -36 4 -73 9 -82 10 -9 2
-72 7 -140 10 -68 4 -152 9 -188 11 -86 5 -485 5 -580 0 -41 -2 -129 -7 -195
-11 l-120 -6 -29 66 c-16 36 -27 67 -25 69 10 7 190 166 234 206 65 59 380
375 425 426 136 153 185 211 256 299 212 266 350 494 372 616 36 198 -171 154
-548 -114 -311 -222 -720 -602 -1035 -962 -43 -49 -79 -91 -81 -93 -1 -2 -32
10 -69 25 l-67 27 8 116 c16 232 8 1069 -11 1100 -2 3 -6 39 -10 80 -3 41 -8
92 -10 112 -6 56 -34 214 -52 287 -8 36 -17 74 -19 85 -9 48 -49 155 -75 202
-48 85 -85 106 -135 75z"/>
</g>
</svg>
